<?xml version="1.0" encoding="UTF-8" standalone="no"?>
<!-- Created with Inkscape (http://www.inkscape.org/) -->

<svg
   xmlns:dc="http://purl.org/dc/elements/1.1/"
   xmlns:cc="http://creativecommons.org/ns#"
   xmlns:rdf="http://www.w3.org/1999/02/22-rdf-syntax-ns#"
   xmlns:svg="http://www.w3.org/2000/svg"
   xmlns="http://www.w3.org/2000/svg"
   xmlns:sodipodi="http://sodipodi.sourceforge.net/DTD/sodipodi-0.dtd"
   xmlns:inkscape="http://www.inkscape.org/namespaces/inkscape"
   width="210mm"
   height="297mm"
   viewBox="0 0 744.09448819 1052.3622047"
   id="svg2"
   version="1.1"
   inkscape:version="0.91 r13725"
   sodipodi:docname="game_over_sms.svg"
   inkscape:export-filename="C:\Users\lukas\Desktop\game_over_sms.png"
   inkscape:export-xdpi="100"
   inkscape:export-ydpi="100">
  <defs
     id="defs4" />
  <sodipodi:namedview
     id="base"
     pagecolor="#ffffff"
     bordercolor="#666666"
     borderopacity="1.0"
     inkscape:pageopacity="0.0"
     inkscape:pageshadow="2"
     inkscape:zoom="2.8"
     inkscape:cx="113.90793"
     inkscape:cy="932.76694"
     inkscape:document-units="px"
     inkscape:current-layer="layer1"
     showgrid="false"
     inkscape:window-width="1276"
     inkscape:window-height="885"
     inkscape:window-x="508"
     inkscape:window-y="81"
     inkscape:window-maximized="0" />
  <metadata
     id="metadata7">
    <rdf:RDF>
      <cc:Work
         rdf:about="">
        <dc:format>image/svg+xml</dc:format>
        <dc:type
           rdf:resource="http://purl.org/dc/dcmitype/StillImage" />
        <dc:title></dc:title>
      </cc:Work>
    </rdf:RDF>
  </metadata>
  <g
     inkscape:label="Layer 1"
     inkscape:groupmode="layer"
     id="layer1">
    <path
       style="fill:#ee0000;fill-opacity:1"
       d="m 183.61719,40.922157 0,24.04492 c 0,17.54475 -0.3944,25.72197 -1.45703,30.25 -0.80096,3.41304 -2.14503,9.133603 -2.98633,12.712893 -0.8413,3.57929 -1.81695,8.6162 -2.16992,11.19141 l -0.64258,4.68164 4.87695,0.3789 0.002,0 c 10.00401,0.77887 15.27514,0.71331 15.83789,-0.19726 0.31873,-0.51571 1.54299,-6.82884 2.72071,-14.0293 1.33618,-8.16926 2.55063,-12.954483 3.22851,-12.728523 0.59749,0.19916 2.7395,3.461873 4.75977,7.251963 2.02027,3.79009 4.19335,7.0651 4.83008,7.27734 0.63672,0.21224 1.83733,-0.58362 2.66797,-1.76953 3.54954,-5.06768 13.6329,-16.095623 14.19922,-15.529303 0.33971,0.33972 0.72862,6.543553 0.86328,13.787113 0.13467,7.24355 0.4619,13.73412 0.72656,14.42383 0.34364,0.8955 3.49114,1.25391 11.01172,1.25391 l 10.53125,0 -0.008,-3.75 c -0.004,-2.0625 -0.47609,-6.63801 -1.04883,-10.16797 -0.57275,-3.52996 -1.91501,-13.429963 -2.98243,-22.000003 -3.39907,-27.29021 -6.22522,-45.55147 -7.21093,-46.58203 -0.62982,-0.65847 -1.34863,-0.38003 -2.10352,0.81445 -0.63054,0.99771 -2.42597,3.24771 -3.99023,5 -1.56427,1.75228 -4.71427,5.41166 -7,8.13086 -10.40954,12.38362 -12.35832,12.57212 -20.36719,1.97851 -1.21552,-1.60781 -2.90301,-3.82382 -3.75,-4.92382 -0.84699,-1.1 -3.13575,-4.1375 -5.08594,-6.75 -3.5367,-4.7378 -3.56107,-4.75 -9.5,-4.75 l -5.95312,0 z m -118.886717,2 -15.029301,16.25 -15.029297,16.25 -0.02734,14.48437 -0.02734,14.482423 10.232421,10.26758 10.232424,10.26563 19.69922,0 19.69922,0 1.81836,-2.75391 c 0.99995,-1.51486 2.26836,-3.49257 2.81836,-4.39648 0.55,-0.90391 2.4625,-3.73808 4.25,-6.29688 l 3.25,-4.65234 0,-15.976573 0,-15.9746 -15.25,0.27539 -15.25,0.27539 0,6.5 0,6.5 7.5,0.5 7.5,0.5 0.31054,3.75 0.31055,3.75 -10.43555,0 c -9.36259,0 -10.90977,-0.26408 -15.06054,-2.58399 l -4.625,-2.58593 0,-8.18946 0,-8.18945 6.4707,-6.97461 c 3.55877,-3.83642 6.4838,-7.31406 6.5,-7.72656 0.0533,-1.35493 3.03648,-0.7859 7.30664,1.39258 4.69693,2.39618 17.1941,5.27622 19.33398,4.45507 1.02534,-0.39346 1.38868,-2.63029 1.38868,-8.53906 l 0,-8.00391 -5.23633,-3.52734 -5.23633,-3.52734 -13.70703,0 -13.70703,0 z m 254.810547,6.72851 c -1.34125,0.0392 -3.80514,0.35438 -6.32227,0.83203 -3.35616,0.63686 -9.70156,1.69234 -14.10156,2.34571 -4.4,0.65337 -11.375,1.80832 -15.5,2.5664 -4.125,0.75808 -12.45,2.1458 -18.5,3.08399 -15.11947,2.34462 -15.5,2.52624 -15.5,7.36914 0,2.18545 0.66064,9.05774 1.46875,15.27344 0.80811,6.21567 2.19122,18.25835 3.07226,26.761713 0.88103,8.50336 1.8244,15.82348 2.09766,16.26563 0.27326,0.44214 14.0796,0.68457 30.67969,0.53906 l 30.18164,-0.26562 0.29297,-7.84375 c 0.19213,-5.13069 -0.1305,-8.35653 -0.9336,-9.32422 -1.00878,-1.2155 -4.1839,-1.43889 -17.79297,-1.2461 -15.82617,0.2242 -16.55036,0.15119 -16.2207,-1.67382 0.18979,-1.05066 0.46139,-2.03306 0.60352,-2.18164 0.23813,-0.24895 11.26882,-2.568473 19.55078,-4.111333 l 3.5,-0.65235 0,-7.48242 0,-7.48437 -9.25,-0.28711 c -6.95304,-0.21612 -9.25,-0.62276 -9.25,-1.63672 0,-1.45303 1.93456,-1.82018 19,-3.61524 16.81767,-1.769 15,-0.0256 15,-14.39648 0,-8.44094 -0.3669,-12.51879 -1.14844,-12.7793 -0.15783,-0.0526 -0.48065,-0.0697 -0.92773,-0.0566 z m -175.42188,0.47461 c -0.68164,-0.16394 -6.13648,4.93938 -12.12109,11.33985 l -10.88086,11.63671 -6.28711,16.16016 c -3.4581,8.88847 -6.94816,18.023563 -7.75391,20.300783 -0.80575,2.27723 -2.13481,5.42723 -2.95508,7 -0.82026,1.57278 -1.49505,3.87188 -1.49805,5.10938 -0.006,2.2295 0.12496,2.25 14.40821,2.25 l 14.41406,0 3.07617,-5 c 2.56013,-4.16074 3.56783,-5 6.00391,-5 5.04805,0 5.99874,0.79966 5.39258,4.53515 -0.30155,1.85807 -0.27709,4.08654 0.0547,4.95117 0.51551,1.34339 2.60543,1.53084 14.37304,1.29297 l 13.77149,-0.27929 0.29687,-23.01368 0.29492,-23.015623 -14.67578,-13.98438 c -8.07184,-7.69147 -15.23243,-14.11926 -15.91406,-14.2832 z m 2.77734,33.67969 c 2.27334,0.0691 2.72071,1.95995 2.72071,6.81836 l 0,5.29883 -6,0 -6,0 0,-4.8086 0,-4.80859 4.91797,-1.57227 c 1.9176,-0.61322 3.32799,-0.95916 4.36132,-0.92773 z m -65.414057,42.119143 -8.68164,0.0742 -8.68359,0.0742 -8,9.00195 c -10.321665,11.61575 -13.151494,14.76039 -17.892584,19.87305 -3.1352,3.38091 -3.964742,5.10041 -4.257812,8.83593 -0.53486,6.81753 0.388599,9.7008 4.480469,13.98829 2.01863,2.11513 6.369922,6.93363 9.669922,10.70898 3.299999,3.77536 6.787505,7.67057 7.750005,8.6543 1.52477,1.5584 3.6496,1.78906 16.51757,1.78906 l 14.76953,0 9.70118,-9.75 9.699217,-9.75 0.25,-14 0.24804,-14 -12.785147,-12.75 -12.78516,-12.75 z m 47.529297,0.11328 c -0.45491,-0.005 -1.00152,0.048 -1.67188,0.14649 -5.2435,0.77061 -22.12567,5.91724 -23.37305,7.125 -1.17891,1.14148 -0.5059,2.99436 12.41407,34.11328 2.74019,6.6 7.56009,18.3 10.71094,26 3.15085,7.7 6.14901,14.7875 6.66211,15.75 0.75862,1.42307 2.30472,1.75 8.27539,1.75 4.6957,0 7.68934,-0.45058 8.30273,-1.25 0.52751,-0.6875 3.52787,-8.225 6.66797,-16.75 3.14009,-8.525 6.11368,-16.4 6.60938,-17.5 0.4957,-1.1 2.32284,-5.6 4.05859,-10 1.73575,-4.4 3.73911,-9.35 4.45312,-11 0.71402,-1.65 1.45473,-3.8616 1.64649,-4.91602 0.77598,-4.26681 2.58306,-2.48579 3.17578,3.13086 0.33583,3.18227 1.0395,9.83516 1.56445,14.78516 0.52495,4.95 1.46025,14.175 2.07813,20.5 0.61789,6.325 1.31461,12.0625 1.54687,12.75 0.32528,0.96285 7.31563,1.25 30.4336,1.25 l 30.01171,0 0.57032,-2.26953 c 0.31345,-1.249 0.43503,-5.4115 0.26953,-9.25 l -0.30078,-6.98047 -17.25,-0.27344 c -14.22732,-0.22567 -17.25,-0.52618 -17.25,-1.71484 0,-2.0903 2.40088,-3.04018 12.5,-4.95118 13.80262,-2.61179 12.62616,-1.66701 12.29101,-9.89062 l -0.29101,-7.16992 -8.5,-0.26758 c -10.34792,-0.32702 -11.95059,-0.75133 -9.92774,-2.63086 0.8968,-0.83325 6.76129,-1.77546 15.77539,-2.5332 7.89188,-0.66339 14.97938,-1.44842 15.75,-1.74414 1.09672,-0.42085 1.40235,-3.21683 1.40235,-12.8711 0,-6.7837 -0.35939,-12.55653 -0.79883,-12.82812 -0.43944,-0.27159 -4.15194,0.14381 -8.25,0.92382 -4.09806,0.78003 -18.70117,3.239 -32.45117,5.4629 -32.01721,5.17839 -30.20789,4.76158 -30.82031,7.10351 -0.48027,1.83653 -1.20029,1.5762 -8.85157,-3.19531 -4.5809,-2.85675 -9.52252,-6.03242 -10.98242,-7.05664 -1.4599,-1.02422 -3.52423,-1.86328 -4.58789,-1.86328 -1.70577,0 -2.08042,1.20921 -3.16992,10.25 -0.67938,5.6375 -1.62377,12.725 -2.09766,15.75 -0.47389,3.025 -1.15886,8.31335 -1.52344,11.75 -0.36458,3.43664 -1.03489,6.01849 -1.48828,5.73828 -0.45339,-0.28022 -1.55555,-3.76662 -2.45117,-7.74805 -4.24228,-18.85867 -7.78587,-33.45527 -8.64062,-35.5957 -0.58712,-1.47021 -1.12747,-2.01468 -2.49219,-2.0293 z m 172.74414,0.53711 -25.51953,6.26172 c -14.03528,3.4436 -25.90251,6.784 -26.3711,7.42383 -1.11874,1.52756 2.6992,67.78002 4,69.41211 1.09229,1.37047 17.48457,1.7848 19.25196,0.48632 0.55,-0.40408 1.98493,-2.53632 3.18945,-4.73632 3.38953,-6.19082 4.01321,-6.24287 12.52344,-1.07618 l 7.64258,4.64063 12.32226,-0.28125 12.32227,-0.2832 0,-6.39063 c 0,-7.20126 0.66144,-6.49598 -10.5,-11.17383 -4.125,-1.72882 -8.07513,-3.68729 -8.77735,-4.35156 -1.0193,-0.9642 0.85845,-3.31382 9.3086,-11.64648 5.82158,-5.74063 11.0398,-11.25533 11.59765,-12.25586 0.59865,-1.0737 0.74074,-4.35189 0.34571,-8 l -0.66992,-6.18164 -10.33204,-10.92383 -10.33398,-10.92383 z M 75.083983,145.30497 c 0.14468,-0.005 0.25702,0.034 0.33985,0.11719 0.54767,0.55 2.58968,4.08407 4.53711,7.85156 l 3.54101,6.84961 -3.66211,7.40039 c -2.0139,4.07001 -4.1678,7.39844 -4.78711,7.39844 -1.42404,0 -14.43354,-13.12947 -14.43554,-14.56836 -6.4e-4,-0.58802 3.10806,-4.41302 6.90625,-8.5 4.02071,-4.32644 6.54779,-6.51513 7.56054,-6.54883 z m 202.533207,5.61914 2.75,0.004 c 1.5125,0.002 5.225,1.48858 8.25,3.30468 5.2775,3.16842 5.51246,3.49096 5.80273,7.94141 0.20128,3.08594 -0.3315,5.87351 -1.5918,8.33008 -1.84415,3.59464 -2.05695,3.69898 -8.01171,3.93164 -3.36398,0.13143 -6.36011,-0.007 -6.65821,-0.30469 -0.29811,-0.2981 -0.54101,-5.64166 -0.54101,-11.875 l 0,-11.33203 z"
       id="path3347-2"
       inkscape:connector-curvature="0"
       inkscape:export-xdpi="90"
       inkscape:export-ydpi="90" />
  </g>
</svg>
