<?xml version="1.0" encoding="utf-8"?>
<!-- Generator: Adobe Illustrator 17.0.0, SVG Export Plug-In . SVG Version: 6.00 Build 0)  -->
<!DOCTYPE svg PUBLIC "-//W3C//DTD SVG 1.1//EN" "http://www.w3.org/Graphics/SVG/1.1/DTD/svg11.dtd">
<svg version="1.1" id="Layer_2" xmlns="http://www.w3.org/2000/svg" xmlns:xlink="http://www.w3.org/1999/xlink" x="0px" y="0px"
	 width="425.2px" height="425.2px" viewBox="0 0 425.2 425.2" enable-background="new 0 0 425.2 425.2" xml:space="preserve">
<rect x="0" fill="#FF0000" width="425.2" height="425.2"/>
<g>
	<g>
		<path d="M226.312,307.96c-14.406,1.719-32.098,0.117-48.657-5.99c-18.537-6.834-36.081-16.277-47.811-33.232
			c-5.211-7.532-9.538-15.678-14.235-23.564c-5.028-8.442-4.649-17.761-3.814-26.961c0.987-10.876,10.872-17.302,21.355-14.256
			c5.153,1.497,8.111,5.26,7.808,10.527c-1.632,28.383,15.051,45.104,37.624,56.844c9.204,4.786,20.327,6.935,30.803,7.955
			c13.614,1.325,27.455,0.49,41.194,0.292c18.371-0.264,31.183-12.981,32.424-31.216c0.562-8.265,1.704-16.544,3.325-24.669
			c1.267-6.354,5.947-9.02,12.464-8.606c6.55,0.416,11.265,3.354,12.591,9.891c7.313,36.069-0.643,58.571-32.098,75.935
			c-7.579,4.184-17.02,5.57-25.807,6.818C245.691,308.834,237.623,307.96,226.312,307.96z"/>
		<path d="M117.071,130.457c-0.02-7.131,4.325-11.592,11.458-11.76c6.729-0.16,12.47,5.272,12.498,11.824
			c0.026,6.23-6.116,12.191-12.416,12.046C122.235,142.42,117.089,137.02,117.071,130.457z"/>
		<path d="M287.376,139.598c-7.938-0.062-11.025-3.176-10.858-10.952c0.146-6.789,6.018-12.176,13.138-12.053
			c6.236,0.108,10.642,4.77,10.696,11.315C300.416,135.479,295.771,139.663,287.376,139.598z"/>
	</g>
</g>
</svg>
